ModelForces
version=1
nRows=4
nColumns=206
inDegrees=no

This file contains the forces exerted on a model during a simulation.

A force is a generalized force, meaning that it can be either a force (N) or a torque (Nm).

Units are S.I. units (second, meters, Newtons, ...)
Angles are in degrees.

endheader
time	glut_med1_r	glut_med2_r	glut_med3_r	glut_min1_r	glut_min2_r	glut_min3_r	semimem_r	semiten_r	bifemlh_r	bifemsh_r	sar_r	add_long_r	add_brev_r	add_mag1_r	add_mag2_r	add_mag3_r	tfl_r	pect_r	grac_r	glut_max1_r	glut_max2_r	glut_max3_r	iliacus_r	psoas_r	quad_fem_r	gem_r	peri_r	rect_fem_r	vas_med_r	vas_int_r	vas_lat_r	med_gas_r	lat_gas_r	soleus_r	tib_post_r	flex_dig_r	flex_hal_r	tib_ant_r	per_brev_r	per_long_r	per_tert_r	ext_dig_r	ext_hal_r	glut_med1_l	glut_med2_l	glut_med3_l	glut_min1_l	glut_min2_l	glut_min3_l	semimem_l	semiten_l	bifemlh_l	bifemsh_l	sar_l	add_long_l	add_brev_l	add_mag1_l	add_mag2_l	add_mag3_l	tfl_l	pect_l	grac_l	glut_max1_l	glut_max2_l	glut_max3_l	iliacus_l	psoas_l	quad_fem_l	gem_l	peri_l	rect_fem_l	vas_med_l	vas_int_l	vas_lat_l	med_gas_l	lat_gas_l	soleus_l	tib_post_l	flex_dig_l	flex_hal_l	tib_ant_l	per_brev_l	per_long_l	per_tert_l	ext_dig_l	ext_hal_l	ercspn_r	ercspn_l	intobl_r	intobl_l	extobl_r	extobl_l	femur_lat_meniscii_l.femur_lat_l.force.X	femur_lat_meniscii_l.femur_lat_l.force.Y	femur_lat_meniscii_l.femur_lat_l.force.Z	femur_lat_meniscii_l.femur_lat_l.torque.X	femur_lat_meniscii_l.femur_lat_l.torque.Y	femur_lat_meniscii_l.femur_lat_l.torque.Z	femur_lat_meniscii_l.meniscus_lat_l.force.X	femur_lat_meniscii_l.meniscus_lat_l.force.Y	femur_lat_meniscii_l.meniscus_lat_l.force.Z	femur_lat_meniscii_l.meniscus_lat_l.torque.X	femur_lat_meniscii_l.meniscus_lat_l.torque.Y	femur_lat_meniscii_l.meniscus_lat_l.torque.Z	femur_med_meniscii_l.femur_med_l.force.X	femur_med_meniscii_l.femur_med_l.force.Y	femur_med_meniscii_l.femur_med_l.force.Z	femur_med_meniscii_l.femur_med_l.torque.X	femur_med_meniscii_l.femur_med_l.torque.Y	femur_med_meniscii_l.femur_med_l.torque.Z	femur_med_meniscii_l.meniscus_med_l.force.X	femur_med_meniscii_l.meniscus_med_l.force.Y	femur_med_meniscii_l.meniscus_med_l.force.Z	femur_med_meniscii_l.meniscus_med_l.torque.X	femur_med_meniscii_l.meniscus_med_l.torque.Y	femur_med_meniscii_l.meniscus_med_l.torque.Z	femur_lat_meniscii_r.femur_lat_r.force.X	femur_lat_meniscii_r.femur_lat_r.force.Y	femur_lat_meniscii_r.femur_lat_r.force.Z	femur_lat_meniscii_r.femur_lat_r.torque.X	femur_lat_meniscii_r.femur_lat_r.torque.Y	femur_lat_meniscii_r.femur_lat_r.torque.Z	femur_lat_meniscii_r.meniscus_lat_r.force.X	femur_lat_meniscii_r.meniscus_lat_r.force.Y	femur_lat_meniscii_r.meniscus_lat_r.force.Z	femur_lat_meniscii_r.meniscus_lat_r.torque.X	femur_lat_meniscii_r.meniscus_lat_r.torque.Y	femur_lat_meniscii_r.meniscus_lat_r.torque.Z	femur_med_meniscii_r.femur_med_r.force.X	femur_med_meniscii_r.femur_med_r.force.Y	femur_med_meniscii_r.femur_med_r.force.Z	femur_med_meniscii_r.femur_med_r.torque.X	femur_med_meniscii_r.femur_med_r.torque.Y	femur_med_meniscii_r.femur_med_r.torque.Z	femur_med_meniscii_r.meniscus_med_r.force.X	femur_med_meniscii_r.meniscus_med_r.force.Y	femur_med_meniscii_r.meniscus_med_r.force.Z	femur_med_meniscii_r.meniscus_med_r.torque.X	femur_med_meniscii_r.meniscus_med_r.torque.Y	femur_med_meniscii_r.meniscus_med_r.torque.Z	femur_med_tibia_l.tibia_upper_l.force.X	femur_med_tibia_l.tibia_upper_l.force.Y	femur_med_tibia_l.tibia_upper_l.force.Z	femur_med_tibia_l.tibia_upper_l.torque.X	femur_med_tibia_l.tibia_upper_l.torque.Y	femur_med_tibia_l.tibia_upper_l.torque.Z	femur_med_tibia_l.femur_med_l.force.X	femur_med_tibia_l.femur_med_l.force.Y	femur_med_tibia_l.femur_med_l.force.Z	femur_med_tibia_l.femur_med_l.torque.X	femur_med_tibia_l.femur_med_l.torque.Y	femur_med_tibia_l.femur_med_l.torque.Z	femur_lat_tibia_l.tibia_upper_l.force.X	femur_lat_tibia_l.tibia_upper_l.force.Y	femur_lat_tibia_l.tibia_upper_l.force.Z	femur_lat_tibia_l.tibia_upper_l.torque.X	femur_lat_tibia_l.tibia_upper_l.torque.Y	femur_lat_tibia_l.tibia_upper_l.torque.Z	femur_lat_tibia_l.femur_lat_l.force.X	femur_lat_tibia_l.femur_lat_l.force.Y	femur_lat_tibia_l.femur_lat_l.force.Z	femur_lat_tibia_l.femur_lat_l.torque.X	femur_lat_tibia_l.femur_lat_l.torque.Y	femur_lat_tibia_l.femur_lat_l.torque.Z	femur_med_tibia_r.tibia_upper_r.force.X	femur_med_tibia_r.tibia_upper_r.force.Y	femur_med_tibia_r.tibia_upper_r.force.Z	femur_med_tibia_r.tibia_upper_r.torque.X	femur_med_tibia_r.tibia_upper_r.torque.Y	femur_med_tibia_r.tibia_upper_r.torque.Z	femur_med_tibia_r.femur_med_r.force.X	femur_med_tibia_r.femur_med_r.force.Y	femur_med_tibia_r.femur_med_r.force.Z	femur_med_tibia_r.femur_med_r.torque.X	femur_med_tibia_r.femur_med_r.torque.Y	femur_med_tibia_r.femur_med_r.torque.Z	femur_lat_tibia_r.tibia_upper_r.force.X	femur_lat_tibia_r.tibia_upper_r.force.Y	femur_lat_tibia_r.tibia_upper_r.force.Z	femur_lat_tibia_r.tibia_upper_r.torque.X	femur_lat_tibia_r.tibia_upper_r.torque.Y	femur_lat_tibia_r.tibia_upper_r.torque.Z	femur_lat_tibia_r.femur_lat_r.force.X	femur_lat_tibia_r.femur_lat_r.force.Y	femur_lat_tibia_r.femur_lat_r.force.Z	femur_lat_tibia_r.femur_lat_r.torque.X	femur_lat_tibia_r.femur_lat_r.torque.Y	femur_lat_tibia_r.femur_lat_r.torque.Z	aACL_R	pACL_R	aPCL_R	pPCL_R	aMCL_R	mMCL_R	pMCL_R	aLCL_R	mLCL_R	pLCL_R	aPCL_L	pPCL_L	aMCL_L	aLCL_L	ground_prescribedForce_-20_fx	ground_prescribedForce_-20_fy	ground_prescribedForce_-20_fz
      0.23645594	      9.07089567	      6.71013885	      7.19779848	      3.12652688	      3.68606222	      3.83539575	      9.83998847	      5.68202134	      8.29853694	      8.41702031	      1.95765727	      6.66124699	      4.86206658	      3.45301999	      2.91442112	      4.82020537	      4.65152465	      2.63520091	      2.04206378	      4.33013653	      6.58361085	      4.92952964	     24.54735696	     15.11404485	      4.27961714	      3.16316285	      5.23121404	     16.02095247	     13.25132024	     12.58886287	     14.60957662	      3.36800801	      1.58449949	      9.30291291	      9.63629586	      2.53184817	      2.30972106	     15.57251019	      4.56707797	      9.53600032	      6.24217866	      7.12642096	      2.53998654	      9.07089567	      6.71013885	      7.19779848	      3.12652688	      3.68606222	      3.83539575	     10.92313353	      4.89877953	      9.51003855	      8.51620484	      1.78566662	      6.66124699	      4.86206658	      3.45301999	      2.91442112	      4.82020537	      4.61284462	      2.63520091	      1.83662079	      4.33013653	      6.58361085	      4.92952964	     24.54735696	     15.11404485	      4.27961714	      3.16316285	      5.23121404	     13.15987732	      7.84048112	      9.02330545	      9.69523723	     18.46326569	      8.57572076	     39.76599714	     45.87323072	      3.66464255	      3.76622704	     10.33731097	      5.43729894	     14.91048571	      2.33819809	      6.72019807	      2.11364662	     29.41505085	     29.41505085	     10.73933740	     10.73933740	     28.36815208	     28.36815208	      2.76307435	     50.99597937	     -9.56042239	      5.21997485	     -0.02578839	      1.48581788	     -2.76307435	    -50.99597937	      9.56042239	     -1.74637766	      0.02558040	     -0.48301696	     -3.31599387	     20.97615968	     -3.40468921	      0.94473225	     -0.02138609	     -1.00501789	      3.31599387	    -20.97615968	      3.40468921	      0.28075727	      0.00368718	     -0.29758878	     28.08913325	     29.54955079	      0.36623161	     -0.89702423	      0.71284729	     11.57572128	    -28.08913325	    -29.54955079	     -0.36623161	      0.91157647	     -0.86279521	     -0.59323395	     76.44039806	     64.57058902	      1.42529711	      0.79398443	     -1.64010691	     31.65252003	    -76.44039806	    -64.57058902	     -1.42529711	     -1.00180531	      1.22894581	     -1.87990333	      0.00000000	      0.00000000	      0.00000000	      0.00000000	      0.00000000	      0.00000000	      0.00000000	      0.00000000	      0.00000000	      0.00000000	      0.00000000	      0.00000000	      0.00000000	      0.00000000	      0.00000000	      0.00000000	      0.00000000	      0.00000000	      0.00000000	      0.00000000	      0.00000000	      0.00000000	      0.00000000	      0.00000000	      0.00000000	      0.00000000	      0.00000000	      0.00000000	      0.00000000	      0.00000000	      0.00000000	      0.00000000	      0.00000000	      0.00000000	      0.00000000	      0.00000000	      0.00000000	      0.00000000	      0.00000000	      0.00000000	      0.00000000	      0.00000000	      0.00000000	      0.00000000	      0.00000000	      0.00000000	      0.00000000	      0.00000000	      9.55333514	      3.81451874	      0.00000000	      0.00000000	      0.00000000	      7.37098894	     14.53217541	      0.00000000	      0.00000000	      0.00000000	      0.00000000	      0.00000000	      0.00000001	      0.00000000	    103.36618800	    -37.62220000	      0.00000000
      0.23787782	      9.04282705	      6.69096336	      7.17697360	      3.11796983	      3.67675874	      3.82355488	      9.82454021	      5.66882743	      8.25508922	      8.37865714	      1.95357194	      6.64198634	      4.84888220	      3.44321297	      2.90594510	      4.80484665	      4.64226904	      2.62794013	      2.03811237	      4.31774706	      6.56472147	      4.91513856	     24.51236214	     15.07433013	      4.26764695	      3.15744477	      5.21110210	     15.96657780	     13.22468685	     12.55056702	     14.54182036	      3.35505021	      1.57444365	      9.27319473	      9.55850848	      2.56247689	      2.29751661	     15.51395886	      4.58833651	      9.52610868	      7.16389163	      7.01915789	      2.53277321	      9.04282705	      6.69096336	      7.17697360	      3.11796983	      3.67675874	      3.82355488	     10.88362848	      4.88375398	      9.47668407	      8.49236477	      1.78080194	      6.64198634	      4.84888220	      3.44321297	      2.90594510	      4.80484665	      4.60332668	      2.62794013	      1.83152948	      4.31774706	      6.56472147	      4.91513856	     24.51236214	     15.07433013	      4.26764695	      3.15744477	      5.21110210	     13.11428507	      7.81748614	      8.99635300	      9.66637279	     18.38784133	      8.54064375	     39.61278031	     45.80969395	      3.64846037	      3.75116142	     10.30266908	      5.41737504	     14.86745710	      2.33206327	      6.69298246	      2.10523671	     29.33436108	     29.33436108	     10.70732698	     10.70732698	     28.33934081	     28.33934081	      2.76307435	     50.99597937	     -9.56042239	      5.21997485	     -0.02578839	      1.48581788	     -2.76307435	    -50.99597937	      9.56042239	     -1.74637766	      0.02558040	     -0.48301696	     -3.31599387	     20.97615968	     -3.40468921	      0.94473225	     -0.02138609	     -1.00501789	      3.31599387	    -20.97615968	      3.40468921	      0.28075727	      0.00368718	     -0.29758878	     28.00545175	     29.49779648	      0.37313691	     -0.89870800	      0.71100162	     11.54072459	    -28.00545175	    -29.49779648	     -0.37313691	      0.91063540	     -0.86084988	     -0.58988840	     76.69775398	     64.59019842	      1.49193206	      0.76529561	     -1.64382149	     31.76103392	    -76.69775398	    -64.59019842	     -1.49193206	     -0.99792491	      1.23002954	     -1.88765681	      0.00000000	      0.00000000	      0.00000000	      0.00000000	      0.00000000	      0.00000000	      0.00000000	      0.00000000	      0.00000000	      0.00000000	      0.00000000	      0.00000000	      0.00000000	      0.00000000	      0.00000000	      0.00000000	      0.00000000	      0.00000000	      0.00000000	      0.00000000	      0.00000000	      0.00000000	      0.00000000	      0.00000000	      0.00000000	      0.00000000	      0.00000000	      0.00000000	      0.00000000	      0.00000000	      0.00000000	      0.00000000	      0.00000000	      0.00000000	      0.00000000	      0.00000000	      0.00000000	      0.00000000	      0.00000000	      0.00000000	      0.00000000	      0.00000000	      0.00000000	      0.00000000	      0.00000000	      0.00000000	      0.00000000	      0.00000000	      9.64023592	      3.81687667	      0.00000000	      0.00000000	      0.00000000	      7.45425013	     14.67092308	      0.00000000	      0.00000000	      0.00000000	      0.00000000	      0.00000000	      0.00000001	      0.00000000	    103.36618800	    -37.62220000	      0.00000000
      0.24139291	      8.97565847	      6.64506740	      7.12713272	      3.09748596	      3.65449026	      3.79521909	      9.78715616	      5.63690177	      8.15105921	      8.28912402	      1.94288232	      6.59588923	      4.81732456	      3.41974037	      2.88566045	      4.76809382	      4.61782489	      2.61055938	      2.02793829	      4.28809528	      6.51951359	      4.88069825	     24.42862026	     14.97931229	      4.23899428	      3.14376532	      5.16288265	     15.83671922	     13.16072621	     12.45868047	     14.37904585	      3.32566476	      1.55063224	      9.20900461	      9.35838409	      2.62969778	      2.25965546	     15.37421751	      4.64650634	      9.51548692	      8.20167662	      6.77688545	      2.52377867	      8.97565847	      6.64506740	      7.12713272	      3.09748596	      3.65449026	      3.79521909	     10.78901160	      4.84779714	      9.39682290	      8.43530017	      1.76915722	      6.59588923	      4.81732456	      3.41974037	      2.88566045	      4.76809382	      4.58055069	      2.61055938	      1.81934214	      4.28809528	      6.51951359	      4.88069825	     24.42862026	     14.97931229	      4.23899428	      3.14376532	      5.16288265	     13.00513360	      7.76246052	      8.93186089	      9.59730858	     18.20673570	      8.45642059	     39.24545720	     45.65754207	      3.60969680	      3.71509347	     10.21975314	      5.36964975	     14.76429335	      2.31738430	      6.62769701	      2.08507598	     29.14120503	     29.14120503	     10.63072102	     10.63072102	     28.27039823	     28.27039823	      2.76307435	     50.99597937	     -9.56042239	      5.21997485	     -0.02578839	      1.48581788	     -2.76307435	    -50.99597937	      9.56042239	     -1.74637766	      0.02558040	     -0.48301696	     -3.31599387	     20.97615968	     -3.40468921	      0.94473225	     -0.02138609	     -1.00501789	      3.31599387	    -20.97615968	      3.40468921	      0.28075727	      0.00368718	     -0.29758878	     27.86025596	     29.36199514	      0.40649014	     -0.90964645	      0.70776337	     11.48017782	    -27.86025596	    -29.36199514	     -0.40649014	      0.90877381	     -0.85778306	     -0.58399909	     76.84159162	     65.06351893	      1.25043661	      0.87358033	     -1.64475141	     31.82095266	    -76.84159162	    -65.06351893	     -1.25043661	     -1.00959335	      1.23003886	     -1.88411699	      0.00000000	      0.00000000	      0.00000000	      0.00000000	      0.00000000	      0.00000000	      0.00000000	      0.00000000	      0.00000000	      0.00000000	      0.00000000	      0.00000000	      0.00000000	      0.00000000	      0.00000000	      0.00000000	      0.00000000	      0.00000000	      0.00000000	      0.00000000	      0.00000000	      0.00000000	      0.00000000	      0.00000000	      0.00000000	      0.00000000	      0.00000000	      0.00000000	      0.00000000	      0.00000000	      0.00000000	      0.00000000	      0.00000000	      0.00000000	      0.00000000	      0.00000000	      0.00000000	      0.00000000	      0.00000000	      0.00000000	      0.00000000	      0.00000000	      0.00000000	      0.00000000	      0.00000000	      0.00000000	      0.00000000	      0.00000000	      9.91381228	      3.89115078	      0.00000000	      0.00000000	      0.00000000	      7.74733383	     15.10634373	      0.00000000	      0.00000000	      0.00000000	      0.00000000	      0.00000000	      0.00000001	      0.00000000	    103.36618800	    -37.62220000	      0.00000000
      0.24632122	      8.88658167	      6.58418212	      7.06102032	      3.07030630	      3.62494711	      3.75764010	      9.73587173	      5.59323878	      8.01994843	      8.18216031	      1.93112594	      6.53474285	      4.77546022	      3.38860217	      2.85875628	      4.71935521	      4.58119703	      2.58749723	      2.01421420	      4.24876382	      6.45954819	      4.83501937	     24.31756612	     14.85334660	      4.20097864	      3.12563270	      5.09872936	     15.67232003	     13.08412774	     12.35237427	     14.19196131	      3.30090907	      1.52672883	      9.16706400	      9.10310702	      2.70691039	      2.19321319	     15.19003195	      4.71575487	      9.50671384	      0.00000000	      6.49700314	      2.53163536	      8.88658167	      6.58418212	      7.06102032	      3.07030630	      3.62494711	      3.75764010	     10.66335458	      4.80011113	      9.29081756	      8.35958958	      1.75370704	      6.53474285	      4.77546022	      3.38860217	      2.85875628	      4.71935521	      4.55034726	      2.58749723	      1.80317133	      4.24876382	      6.45954819	      4.83501937	     24.31756612	     14.85334660	      4.20097864	      3.12563270	      5.09872936	     12.86027326	      7.68949047	      8.84634512	      9.50573652	     17.96515736	      8.34407941	     38.75680557	     45.45551680	      3.55817973	      3.66720855	     10.10975469	      5.30625253	     14.62703318	      2.29792121	      6.54077806	      2.05826561	     28.88490735	     28.88490735	     10.52911813	     10.52911813	     28.17897481	     28.17897481	      2.76307435	     50.99597937	     -9.56042239	      5.21997485	     -0.02578839	      1.48581788	     -2.76307435	    -50.99597937	      9.56042239	     -1.74637766	      0.02558040	     -0.48301696	     -3.31599387	     20.97615968	     -3.40468921	      0.94473225	     -0.02138609	     -1.00501789	      3.31599387	    -20.97615968	      3.40468921	      0.28075727	      0.00368718	     -0.29758878	     27.77046079	     29.20255989	      0.48352405	     -0.93816295	      0.70617787	     11.44271554	    -27.77046079	    -29.20255989	     -0.48352405	      0.90782484	     -0.85719916	     -0.57932270	     77.27539520	     65.51499629	      1.44033513	      0.80001449	     -1.65001752	     32.00462443	    -77.27539520	    -65.51499629	     -1.44033513	     -1.00442373	      1.22908215	     -1.89122718	      0.00000000	      0.00000000	      0.00000000	      0.00000000	      0.00000000	      0.00000000	      0.00000000	      0.00000000	      0.00000000	      0.00000000	      0.00000000	      0.00000000	      0.00000000	      0.00000000	      0.00000000	      0.00000000	      0.00000000	      0.00000000	      0.00000000	      0.00000000	      0.00000000	      0.00000000	      0.00000000	      0.00000000	      0.00000000	      0.00000000	      0.00000000	      0.00000000	      0.00000000	      0.00000000	      0.00000000	      0.00000000	      0.00000000	      0.00000000	      0.00000000	      0.00000000	      0.00000000	      0.00000000	      0.00000000	      0.00000000	      0.00000000	      0.00000000	      0.00000000	      0.00000000	      0.00000000	      0.00000000	      0.00000000	      0.00000000	     10.29959663	      4.00856622	      0.00000000	      0.00000000	      0.00000000	      8.10783391	     15.67653129	      0.00000000	      0.00000000	      0.00000000	      0.00000000	      0.00000000	      0.00000001	      0.00000000	    103.36618800	    -37.62220000	      0.00000000
